PathFileType	4	(X/Y/Z)	C:/Users/opensim2020/Desktop/walking_exp_matlab/subject06_walking21_straight_03.trc																																																																																																																																		
DataRate	CameraRate	NumFrames	NumMarkers	Units	OrigDataRate	OrigDataStartFrame	OrigNumFrames																																																																																																																														
100	100	7	44	mm	100	1807	110																																																																																																																														
Frame#	Time	LFHD			RFHD			LBHD			RBHD			C7			T10			CLAV			STRN			RBAK			LSHO			LUPA			LELB			LFRM			LWRA			LWRB			LFIN			RSHO			RUPA			RELB			RFRM			RWRA			RWRB			RFIN			LASI			RASI			LPSI			RPSI			LTHI			LKNE			LTIB			LANK			LHEE			LTOE			RTHI			RKNE			RTIB			RANK			RHEE			RTOE			*39			*40			*41			*42			*43		
		X1	Y1	Z1	X2	Y2	Z2	X3	Y3	Z3	X4	Y4	Z4	X5	Y5	Z5	X6	Y6	Z6	X7	Y7	Z7	X8	Y8	Z8	X9	Y9	Z9	X10	Y10	Z10	X11	Y11	Z11	X12	Y12	Z12	X13	Y13	Z13	X14	Y14	Z14	X15	Y15	Z15	X16	Y16	Z16	X17	Y17	Z17	X18	Y18	Z18	X19	Y19	Z19	X20	Y20	Z20	X21	Y21	Z21	X22	Y22	Z22	X23	Y23	Z23	X24	Y24	Z24	X25	Y25	Z25	X26	Y26	Z26	X27	Y27	Z27	X28	Y28	Z28	X29	Y29	Z29	X30	Y30	Z30	X31	Y31	Z31	X32	Y32	Z32	X33	Y33	Z33	X34	Y34	Z34	X35	Y35	Z35	X36	Y36	Z36	X37	Y37	Z37	X38	Y38	Z38	X39	Y39	Z39	X40	Y40	Z40	X41	Y41	Z41	X42	Y42	Z42	X43	Y43	Z43	X44	Y44	Z44
																																																																																																																																					
42	0.41	-254.39906	1634.68237	-1104.13977	-259.21701	1619.08362	-973.16589	-387.54437	1581.3811	-1111.05286	-390.47296	1571.22791	-982.3172	-393.12976	1421.5697	-1053.76794	-434.21103	1092.79688	-1037.43774	-284.34244	1341.20264	-1053.17029	-248.39581	1165.37634	-1053.58557	-468.84738	1254.26001	-966.71875	-345.66998	1370.875	-1214.80334	-406.99319	1179.46069	-1281.50525	-450.5484	1075.60022	-1290.26196	-486.74561	932.48828	-1320.30042	-465.79849	799.48163	-1295.9436	-530.89294	821.58948	-1319.03625	-527.01392	731.5282	-1330.95776	-329.28195	1381.38501	-892.08777	-370.4693	1190.68396	-793.71161	-356.73987	1073.79578	-776.20319	-288.13943	980.53772	-766.68195	-165.17813	906.07068	-815.01813	-206.71696	872.37738	-774.56317	-133.74242	832.76941	-781.04956	-254.43996	935.41553	-1140.35693	-268.65573	932.6651	-923.87476	-413.59082	959.7323	-1128.62573	-417.12152	961.29041	-959.91168	-245.96321	630.42255	-1209.8429	-186.93124	482.92484	-1179.26758	-157.98322	228.1851	-1167.56616	-120.50584	61.83836	-1124.6178	-156.88791	45.83939	-1074.09619	23.97607	56.48121	-1127.45813	-369.47211	599.3053	-883.03381	-391.47223	473.20959	-903.21259	-587.82776	284.77557	-920.68719	-719.87701	157.09171	-969.07123	-762.62537	171.31839	-1011.69537	-641.72351	30.16781	-994.12048	-356.3671	1671.10144	-1047.31128	NaN	NaN	NaN	NaN	NaN	NaN	NaN	NaN	NaN	NaN	NaN	NaN
43	0.42	-239.84085	1636.48816	-1105.2937	-245.36111	1620.87659	-974.42468	-372.90021	1583.22522	-1113.00635	-376.60043	1572.95984	-984.21722	-378.38815	1423.26697	-1055.72937	-418.97021	1094.30298	-1038.19897	-269.77399	1343.02722	-1054.31189	-233.10641	1167.42566	-1054.40332	-454.08371	1255.08594	-969.2171	-329.87463	1372.30945	-1216.34802	-389.92596	1180.65869	-1283.55066	-433.45377	1076.78052	-1292.12402	-468.94183	933.39301	-1322.03381	-448.59384	800.36023	-1296.70715	-512.76355	822.27008	-1320.69263	-508.99255	732.3479	-1332.12158	-315.70938	1383.27002	-893.32745	-357.4216	1192.36292	-795.56818	-344.16617	1075.1355	-777.97638	-277.03799	980.4801	-768.0722	-155.04895	903.63934	-815.46368	-197.50549	870.82794	-775.25946	-125.24297	829.89093	-781.24023	-237.91016	937.88672	-1141.07715	-252.15575	933.92316	-924.82782	-397.55817	962.65002	-1128.23987	-400.41812	961.83655	-959.82593	-230.51364	633.97009	-1210.55786	-171.61948	486.0686	-1180.00342	-147.64464	230.33788	-1169.57764	-118.42677	62.44674	-1125.4292	-155.21608	46.85249	-1075.2998	25.92112	51.84593	-1127.43518	-347.59888	598.1416	-882.09418	-366.54843	471.56802	-901.11725	-565.81171	289.12619	-920.3045	-702.61652	167.45827	-968.59906	-742.74829	185.49722	-1012.30243	-638.48407	32.26985	-994.47107	-342.03629	1673.08386	-1049.07092	NaN	NaN	NaN	NaN	NaN	NaN	NaN	NaN	NaN	NaN	NaN	NaN
44	0.43	-225.25255	1638.05115	-1106.52747	-231.21666	1622.56335	-975.74548	-358.24927	1584.93262	-1114.85095	-362.69156	1574.79724	-986.14655	-363.64417	1425.03772	-1057.52283	-403.67853	1095.80078	-1038.55151	-255.16953	1344.89844	-1055.20374	-217.95508	1169.45947	-1055.01001	-439.60452	1256.37915	-971.33105	-313.82858	1373.92688	-1217.5824	-372.45062	1182.09546	-1285.58459	-415.71973	1077.98999	-1293.90417	-449.98633	934.14844	-1323.61414	-429.28781	801.84894	-1297.42249	-493.56808	823.13037	-1322.63745	-489.43362	732.96814	-1333.23145	-302.06372	1385.37866	-894.61835	-345.03876	1194.27661	-797.91797	-331.53296	1076.79187	-780.12347	-266.16998	980.5661	-769.55109	-145.91336	900.68555	-816.07361	-189.09792	869.14099	-775.87225	-117.54276	826.73926	-781.36206	-221.82555	941.01837	-1141.94055	-236.11273	935.11359	-926.10474	-382.224	965.43579	-1127.23364	-383.93002	962.32611	-959.31104	-215.23048	637.76086	-1211.28284	-157.06778	489.1304	-1180.31812	-139.6028	231.4429	-1171.68347	-117.01746	62.61938	-1126.03894	-154.15503	47.6729	-1076.27271	27.58267	47.38083	-1126.78601	-325.30243	597.03925	-881.01807	-340.5054	469.96609	-898.79681	-542.55554	294.04987	-919.40564	-684.11279	178.6696	-968.30298	-721.60809	200.19458	-1011.99304	-632.21539	36.66578	-994.41418	-327.6384	1674.78369	-1050.92407	NaN	NaN	NaN	NaN	NaN	NaN	NaN	NaN	NaN	NaN	NaN	NaN
45	0.44	-210.59311	1639.19812	-1107.73657	-217.34962	1624.03577	-976.94806	-343.69702	1586.24719	-1116.6499	-348.75296	1576.4281	-987.96466	-348.98749	1426.32056	-1059.073	-388.63605	1097.41394	-1038.96362	-240.52451	1346.56067	-1056.01062	-202.68829	1171.2439	-1055.43909	-424.89886	1257.73425	-972.95392	-297.68332	1375.72461	-1218.69189	-354.63046	1183.41724	-1287.23596	-397.41806	1079.23047	-1295.8761	-430.51859	935.09399	-1325.48779	-409.65143	802.73145	-1297.86206	-473.27731	823.7309	-1324.74438	-468.36414	733.49231	-1334.39233	-288.37198	1387.38867	-895.90363	-332.31769	1196.50562	-799.51349	-318.92825	1078.57959	-782.62274	-255.70839	980.72345	-771.07733	-136.77802	897.77679	-816.32635	-181.15164	867.31696	-776.25165	-110.90983	823.01526	-781.11945	-206.37492	944.16876	-1143.01013	-220.63797	936.35571	-927.42438	-367.36203	967.83081	-1126.10913	-368.01294	962.81403	-958.61908	-200.1398	641.33881	-1212.35205	-143.70378	491.02216	-1181.03845	-133.09891	232.27541	-1172.80762	-114.54098	62.53987	-1126.36499	-152.55078	48.64941	-1077.05896	29.58483	43.69351	-1126.25574	-302.86575	595.98767	-880.17169	-313.90176	468.6084	-896.85657	-517.92523	299.28857	-918.36591	-663.29407	189.97743	-967.81708	-697.68958	214.83441	-1011.60931	-624.0097	41.82854	-993.46588	-313.24731	1676.25549	-1052.76782	NaN	NaN	NaN	NaN	NaN	NaN	NaN	NaN	NaN	NaN	NaN	NaN
46	0.45	-196.39366	1640.15967	-1109.01855	-203.37096	1625.60107	-978.28302	-329.21667	1587.2218	-1118.31421	-334.91794	1577.70532	-989.58582	-334.65649	1427.19202	-1060.40466	-373.67169	1098.9021	-1039.26233	-225.71387	1348.03552	-1056.67883	-187.45085	1172.86792	-1055.76025	-410.50742	1259.26709	-974.22363	-281.54349	1377.26489	-1219.41394	-336.67786	1184.76135	-1288.87524	-378.86096	1080.31555	-1297.73633	-410.27283	935.75891	-1327.35901	-388.61258	803.66949	-1298.34998	-451.92401	824.01172	-1326.93481	-446.3349	733.3476	-1335.47778	-274.55414	1389.2074	-897.1012	-319.81927	1198.59863	-801.29309	-306.62067	1080.2478	-785.09961	-245.45824	980.80573	-772.62085	-128.49745	894.21259	-816.71234	-173.94086	865.37775	-776.70093	-104.89063	819.02643	-780.93805	-191.54846	946.82642	-1144.26917	-205.3718	937.4845	-928.72876	-352.72278	969.63824	-1125.30127	-352.53659	963.20532	-957.98761	-186.09734	643.6452	-1213.72913	-132.14925	491.71881	-1181.88416	-126.49047	232.73869	-1173.35657	-112.07188	62.49992	-1126.27808	-151.25005	49.74229	-1077.04028	31.21387	41.0891	-1125.92407	-280.48315	595.23126	-879.55145	-287.10544	467.79904	-895.21533	-491.87137	304.53317	-917.00928	-639.7428	199.82309	-966.88928	-670.71143	227.67165	-1010.96893	-615.80072	45.53047	-992.83075	-299.12207	1677.44617	-1054.62402	NaN	NaN	NaN	NaN	NaN	NaN	NaN	NaN	NaN	NaN	NaN	NaN
47	0.46	-182.01042	1641.63013	-1110.36926	-189.53345	1627.41992	-979.48193	-314.80307	1588.01062	-1119.72583	-320.78635	1579.08032	-991.0451	-320.40097	1428.06006	-1061.55762	-358.91895	1100.41089	-1039.73596	-210.85378	1349.41394	-1057.12439	-172.45538	1174.28406	-1056.00134	-396.15146	1260.80798	-975.27338	-265.43466	1378.81885	-1220.05737	-318.46286	1185.93652	-1290.50586	-360.00558	1081.11426	-1299.67175	-389.46509	936.15649	-1329.23755	-367.05093	804.42267	-1299.07703	-429.92819	823.98181	-1329.17542	-422.92331	733.13196	-1336.52173	-260.77158	1390.7959	-898.08173	-307.11603	1200.41199	-802.68799	-294.61844	1081.65918	-787.32599	-235.56424	980.58044	-774.12665	-120.53182	890.526	-817.06085	-166.92738	862.84406	-777.39667	-99.42604	814.83618	-780.71033	-177.16185	948.91821	-1145.58813	-190.4314	938.49243	-929.89032	-338.26953	971.44568	-1124.92053	-337.87579	963.83618	-957.6377	-173.77644	644.4295	-1214.70911	-121.56027	491.80121	-1182.53137	-119.79189	232.4612	-1173.18555	-110.74516	62.45494	-1125.77112	-150.13513	50.2061	-1077.04956	32.08844	39.27082	-1125.60559	-258.34552	595.01581	-878.98651	-260.08087	467.59583	-893.89355	-464.1337	308.63635	-915.13031	-614.01373	207.4496	-965.72876	-641.21985	238.16078	-1009.99133	-604.77454	50.06521	-992.52435	-285.23346	1678.65479	-1056.39404	NaN	NaN	NaN	NaN	NaN	NaN	NaN	NaN	NaN	NaN	NaN	NaN
48	0.47	-167.99854	1643.2677	-1111.40308	-175.69978	1629.61353	-980.42981	-300.46597	1589.00513	-1120.95923	-306.68161	1580.49951	-992.15314	-305.90289	1429.47571	-1062.59888	-344.18066	1101.97217	-1040.48718	-196.05424	1350.96045	-1057.45569	-157.68513	1175.73999	-1056.15955	-381.93335	1262.271	-976.29755	-249.4474	1380.35864	-1220.71716	-300.26959	1186.97314	-1292.07532	-340.8797	1081.71631	-1301.52051	-368.06189	936.15784	-1331.01453	-344.56897	804.9624	-1299.9563	-406.94733	823.49603	-1331.2041	-398.67676	732.57825	-1337.68176	-246.91344	1392.22327	-898.72986	-294.22754	1201.8269	-803.68573	-282.95663	1082.73181	-789.13458	-226.15598	980.07129	-775.47375	-113.18308	886.64233	-817.3736	-160.70023	860.44916	-777.9884	-94.58327	810.40588	-780.66602	-163.11195	950.56812	-1146.68811	-176.13277	939.5658	-930.61591	-323.88657	973.05438	-1125.23584	-323.33466	964.58179	-957.91028	-162.90948	644.22583	-1214.98108	-111.90152	491.42953	-1182.7594	-114.23641	231.76976	-1172.48096	-109.87769	62.49435	-1125.08545	-149.63177	50.53389	-1076.59326	32.71927	38.17649	-1124.96887	-236.29181	595.48224	-878.65649	-233.41765	468.59296	-893.20013	-434.49451	310.73788	-913.37543	-586.47009	213.37299	-964.34906	-610.13635	245.98463	-1008.73059	-590.21008	54.60975	-992.47101	-271.42337	1680.1272	-1057.84729	NaN	NaN	NaN	NaN	NaN	NaN	NaN	NaN	NaN	NaN	NaN	NaN
